# xmcd
#
# Track frame offsets:
#	150
#	18517
#	36317
#	52100
#	71570
#	87617
#	101192
#	117892
#	136047
#	147442
#	166530
#	182665
#	196100
#	212645
#	233602
#	252847
#	268235
#	292070
#
# Disc length: 4177 seconds
#
# Revision: 0
# Processed by: cddbd v1.5.1PL0 Copyright (c) Steve Scherf et al.
# Submitted via: dBpowerAMP V4.0
#
DISCID=0c104f12
DTITLE=Various Artist - São Paulo
DYEAR=2004
DGENRE=MPB
TTITLE0=Paulista - Angêla Maria
TTITLE1=São São Paulo - Moisés Santana
TTITLE2=Saudosa Maloca - Mauricio Pereira
TTITLE3=Ronda - Jards Macalé
TTITLE4=Augusta, Angélica e Consolação - Rebeca Matta
TTITLE5=Sonora Garoa - Filó Machado 
TTITLE6=Sem São Paulo - Lupa Mabuze
TTITLE7=Sampa - Virgínia Rosa
TTITLE8=Samba do Arnesto - Moacy Luz
TTITLE9=La vou eu - Isabêh
TTITLE10=Pânico em SP - Nancyta e os Grazzers
TTITLE11=Lampião de Gás - Guilherme de Brito
TTITLE12=Tradição - Juliana Amaral e Renato Martins
TTITLE13=São Paulo (Coração do tempo) -  Claudio Nucci
TTITLE14=Punk da Periferia - Rodhanna 
TTITLE15=Trem das Onze - Josias Damasceno
TTITLE16=São Paulo,  São Paulo - Thomas Roth
TTITLE17=Tema de  São Paulo - Amanhecendo - Vários
EXTD=Tribute to 450 Anniversary of the city of São Paulo
EXTT0=
EXTT1=
EXTT2=
EXTT3=
EXTT4=
EXTT5=
EXTT6=
EXTT7=
EXTT8=
EXTT9=
EXTT10=
EXTT11=
EXTT12=
EXTT13=
EXTT14=
EXTT15=
EXTT16=
EXTT17=
PLAYORDER=
